<svg width="430" height="932" viewBox="0 0 430 932" fill="none" xmlns="http://www.w3.org/2000/svg">
<g clip-path="url(#clip0_652_922)">
<rect width="430" height="932" fill="white"/>
<g filter="url(#filter0_d_652_922)">
<rect x="73" y="754" width="280" height="65" rx="32.5" fill="#DB2777" shape-rendering="crispEdges"/>
<path d="M143.601 778.955H147.955L151.648 787.96H151.818L155.511 778.955H159.865V793.5H156.442V784.565H156.321L152.827 793.408H150.639L147.145 784.516H147.024V793.5H143.601V778.955ZM167.157 793.706C166.016 793.706 165.031 793.481 164.203 793.031C163.379 792.577 162.744 791.93 162.299 791.092C161.859 790.25 161.639 789.248 161.639 788.088C161.639 786.961 161.861 785.976 162.306 785.134C162.752 784.286 163.379 783.628 164.189 783.159C164.998 782.686 165.952 782.449 167.051 782.449C167.827 782.449 168.538 782.57 169.181 782.811C169.825 783.053 170.382 783.41 170.85 783.884C171.319 784.357 171.684 784.942 171.944 785.638C172.205 786.329 172.335 787.122 172.335 788.017V788.884H162.853V786.866H169.103C169.099 786.497 169.011 786.168 168.841 785.879C168.67 785.59 168.436 785.366 168.137 785.205C167.844 785.039 167.505 784.956 167.122 784.956C166.734 784.956 166.386 785.044 166.078 785.219C165.77 785.389 165.526 785.624 165.346 785.922C165.166 786.215 165.072 786.549 165.062 786.923V788.976C165.062 789.421 165.15 789.812 165.325 790.148C165.5 790.479 165.749 790.737 166.071 790.922C166.393 791.107 166.776 791.199 167.221 791.199C167.529 791.199 167.808 791.156 168.059 791.071C168.31 790.986 168.526 790.86 168.706 790.695C168.886 790.529 169.02 790.325 169.11 790.084L172.299 790.176C172.167 790.891 171.876 791.514 171.426 792.044C170.981 792.57 170.396 792.979 169.672 793.273C168.947 793.562 168.109 793.706 167.157 793.706ZM181.147 788.791V782.591H184.613V793.5H181.303V791.469H181.19C180.948 792.136 180.536 792.667 179.954 793.06C179.376 793.448 178.678 793.642 177.859 793.642C177.115 793.642 176.462 793.472 175.898 793.131C175.335 792.79 174.897 792.314 174.585 791.703C174.272 791.088 174.113 790.368 174.109 789.544V782.591H177.582V788.862C177.586 789.454 177.743 789.92 178.05 790.261C178.358 790.602 178.777 790.773 179.308 790.773C179.653 790.773 179.963 790.697 180.238 790.545C180.517 790.389 180.737 790.164 180.898 789.871C181.064 789.572 181.147 789.213 181.147 788.791ZM196.348 785.922L193.159 786.007C193.126 785.78 193.036 785.579 192.889 785.403C192.742 785.223 192.55 785.084 192.314 784.984C192.082 784.88 191.812 784.828 191.504 784.828C191.101 784.828 190.758 784.909 190.474 785.07C190.195 785.231 190.057 785.448 190.062 785.723C190.057 785.936 190.143 786.121 190.318 786.277C190.498 786.433 190.817 786.559 191.277 786.653L193.379 787.051C194.468 787.259 195.278 787.605 195.808 788.088C196.343 788.571 196.613 789.21 196.618 790.006C196.613 790.754 196.39 791.405 195.95 791.959C195.514 792.513 194.918 792.944 194.16 793.251C193.403 793.554 192.536 793.706 191.561 793.706C190.003 793.706 188.774 793.386 187.875 792.747C186.98 792.103 186.468 791.241 186.341 790.162L189.771 790.077C189.847 790.474 190.043 790.777 190.36 790.986C190.678 791.194 191.083 791.298 191.575 791.298C192.02 791.298 192.382 791.215 192.662 791.05C192.941 790.884 193.083 790.664 193.088 790.389C193.083 790.143 192.974 789.946 192.761 789.8C192.548 789.648 192.214 789.53 191.76 789.445L189.856 789.082C188.762 788.884 187.948 788.517 187.413 787.982C186.878 787.442 186.613 786.755 186.618 785.922C186.613 785.193 186.807 784.57 187.2 784.054C187.593 783.533 188.152 783.135 188.876 782.861C189.6 782.586 190.455 782.449 191.44 782.449C192.917 782.449 194.082 782.759 194.934 783.379C195.787 783.995 196.258 784.842 196.348 785.922ZM202.624 793.5V778.955H208.633C209.722 778.955 210.662 779.168 211.452 779.594C212.248 780.015 212.861 780.605 213.292 781.362C213.723 782.115 213.938 782.991 213.938 783.99C213.938 784.994 213.718 785.872 213.278 786.625C212.842 787.373 212.219 787.953 211.41 788.365C210.6 788.777 209.639 788.983 208.526 788.983H204.819V786.213H207.873C208.403 786.213 208.846 786.121 209.201 785.936C209.561 785.751 209.833 785.493 210.018 785.162C210.202 784.826 210.295 784.435 210.295 783.99C210.295 783.54 210.202 783.152 210.018 782.825C209.833 782.494 209.561 782.238 209.201 782.058C208.841 781.878 208.398 781.788 207.873 781.788H206.14V793.5H202.624ZM215.671 793.5V782.591H219.045V784.58H219.158C219.357 783.86 219.682 783.325 220.131 782.974C220.581 782.619 221.104 782.442 221.701 782.442C221.862 782.442 222.028 782.454 222.198 782.477C222.369 782.496 222.527 782.527 222.674 782.57V785.588C222.508 785.531 222.29 785.486 222.021 785.453C221.755 785.42 221.519 785.403 221.31 785.403C220.898 785.403 220.527 785.496 220.195 785.68C219.869 785.86 219.611 786.114 219.421 786.44C219.237 786.762 219.144 787.141 219.144 787.577V793.5H215.671ZM228.622 793.706C227.481 793.706 226.496 793.481 225.668 793.031C224.844 792.577 224.209 791.93 223.764 791.092C223.324 790.25 223.104 789.248 223.104 788.088C223.104 786.961 223.326 785.976 223.771 785.134C224.216 784.286 224.844 783.628 225.653 783.159C226.463 782.686 227.417 782.449 228.516 782.449C229.292 782.449 230.002 782.57 230.646 782.811C231.29 783.053 231.847 783.41 232.315 783.884C232.784 784.357 233.149 784.942 233.409 785.638C233.67 786.329 233.8 787.122 233.8 788.017V788.884H224.318V786.866H230.568C230.563 786.497 230.476 786.168 230.305 785.879C230.135 785.59 229.901 785.366 229.602 785.205C229.309 785.039 228.97 784.956 228.587 784.956C228.198 784.956 227.85 785.044 227.543 785.219C227.235 785.389 226.991 785.624 226.811 785.922C226.631 786.215 226.536 786.549 226.527 786.923V788.976C226.527 789.421 226.615 789.812 226.79 790.148C226.965 790.479 227.214 790.737 227.536 790.922C227.857 791.107 228.241 791.199 228.686 791.199C228.994 791.199 229.273 791.156 229.524 791.071C229.775 790.986 229.991 790.86 230.17 790.695C230.35 790.529 230.485 790.325 230.575 790.084L233.764 790.176C233.632 790.891 233.34 791.514 232.891 792.044C232.446 792.57 231.861 792.979 231.136 793.273C230.412 793.562 229.574 793.706 228.622 793.706ZM229.865 781.284L228.452 779.636L227.045 781.284H224.134V781.192L227.209 778.01H229.702L232.77 781.192V781.284H229.865ZM235.574 793.5V782.591H238.876V784.594H238.997C239.224 783.931 239.608 783.408 240.147 783.024C240.687 782.641 241.331 782.449 242.079 782.449C242.837 782.449 243.485 782.643 244.025 783.031C244.565 783.42 244.908 783.94 245.055 784.594H245.169C245.372 783.945 245.77 783.427 246.362 783.038C246.954 782.645 247.652 782.449 248.457 782.449C249.489 782.449 250.327 782.78 250.971 783.443C251.615 784.101 251.937 785.006 251.937 786.156V793.5H248.464V786.952C248.464 786.407 248.324 785.993 248.045 785.709C247.766 785.42 247.404 785.276 246.958 785.276C246.48 785.276 246.104 785.432 245.829 785.744C245.559 786.052 245.424 786.466 245.424 786.987V793.5H242.086V786.916C242.086 786.41 241.949 786.009 241.674 785.716C241.4 785.422 241.038 785.276 240.588 785.276C240.285 785.276 240.017 785.349 239.785 785.496C239.553 785.638 239.371 785.841 239.238 786.107C239.11 786.372 239.047 786.684 239.047 787.044V793.5H235.574ZM254.089 793.5V782.591H257.562V793.5H254.089ZM255.829 781.32C255.342 781.32 254.922 781.159 254.572 780.837C254.222 780.51 254.047 780.117 254.047 779.658C254.047 779.203 254.222 778.815 254.572 778.493C254.922 778.166 255.342 778.003 255.829 778.003C256.322 778.003 256.741 778.166 257.086 778.493C257.437 778.815 257.612 779.203 257.612 779.658C257.612 780.117 257.437 780.51 257.086 780.837C256.741 781.159 256.322 781.32 255.829 781.32ZM264.865 793.706C263.719 793.706 262.734 793.472 261.911 793.003C261.091 792.529 260.459 791.871 260.014 791.028C259.574 790.181 259.354 789.198 259.354 788.081C259.354 786.959 259.574 785.976 260.014 785.134C260.459 784.286 261.091 783.628 261.911 783.159C262.734 782.686 263.719 782.449 264.865 782.449C266.011 782.449 266.993 782.686 267.812 783.159C268.636 783.628 269.268 784.286 269.709 785.134C270.154 785.976 270.376 786.959 270.376 788.081C270.376 789.198 270.154 790.181 269.709 791.028C269.268 791.871 268.636 792.529 267.812 793.003C266.993 793.472 266.011 793.706 264.865 793.706ZM264.886 791.085C265.303 791.085 265.656 790.957 265.945 790.702C266.233 790.446 266.454 790.091 266.605 789.636C266.761 789.182 266.839 788.656 266.839 788.06C266.839 787.454 266.761 786.923 266.605 786.469C266.454 786.014 266.233 785.659 265.945 785.403C265.656 785.148 265.303 785.02 264.886 785.02C264.455 785.02 264.091 785.148 263.793 785.403C263.499 785.659 263.274 786.014 263.118 786.469C262.966 786.923 262.891 787.454 262.891 788.06C262.891 788.656 262.966 789.182 263.118 789.636C263.274 790.091 263.499 790.446 263.793 790.702C264.091 790.957 264.455 791.085 264.886 791.085ZM281.68 785.922L278.491 786.007C278.458 785.78 278.368 785.579 278.221 785.403C278.074 785.223 277.882 785.084 277.646 784.984C277.414 784.88 277.144 784.828 276.836 784.828C276.433 784.828 276.09 784.909 275.806 785.07C275.527 785.231 275.389 785.448 275.394 785.723C275.389 785.936 275.475 786.121 275.65 786.277C275.83 786.433 276.149 786.559 276.609 786.653L278.711 787.051C279.8 787.259 280.61 787.605 281.14 788.088C281.675 788.571 281.945 789.21 281.95 790.006C281.945 790.754 281.722 791.405 281.282 791.959C280.846 792.513 280.25 792.944 279.492 793.251C278.735 793.554 277.868 793.706 276.893 793.706C275.335 793.706 274.106 793.386 273.207 792.747C272.312 792.103 271.8 791.241 271.673 790.162L275.103 790.077C275.179 790.474 275.375 790.777 275.692 790.986C276.01 791.194 276.415 791.298 276.907 791.298C277.352 791.298 277.714 791.215 277.994 791.05C278.273 790.884 278.415 790.664 278.42 790.389C278.415 790.143 278.306 789.946 278.093 789.8C277.88 789.648 277.546 789.53 277.092 789.445L275.188 789.082C274.094 788.884 273.28 788.517 272.745 787.982C272.21 787.442 271.945 786.755 271.95 785.922C271.945 785.193 272.139 784.57 272.532 784.054C272.925 783.533 273.484 783.135 274.208 782.861C274.933 782.586 275.787 782.449 276.772 782.449C278.249 782.449 279.414 782.759 280.266 783.379C281.119 783.995 281.59 784.842 281.68 785.922Z" fill="white"/>
</g>
<g clip-path="url(#clip1_652_922)">
<path d="M32.608 17.76V16.432H35.616V28H34.144V17.76H32.608ZM37.941 26.832C39.2957 25.744 40.357 24.8533 41.125 24.16C41.893 23.456 42.5383 22.7253 43.061 21.968C43.5943 21.2 43.861 20.448 43.861 19.712C43.861 19.0187 43.6903 18.4747 43.349 18.08C43.0183 17.6747 42.4797 17.472 41.733 17.472C41.0077 17.472 40.4423 17.7013 40.037 18.16C39.6423 18.608 39.429 19.2107 39.397 19.968H37.989C38.0317 18.7733 38.3943 17.8507 39.077 17.2C39.7597 16.5493 40.6397 16.224 41.717 16.224C42.8157 16.224 43.685 16.528 44.325 17.136C44.9757 17.744 45.301 18.5813 45.301 19.648C45.301 20.5333 45.0343 21.3973 44.501 22.24C43.9783 23.072 43.381 23.808 42.709 24.448C42.037 25.0773 41.1783 25.8133 40.133 26.656H45.637V27.872H37.941V26.832ZM48.0241 28.096C47.7468 28.096 47.5121 28 47.3201 27.808C47.1281 27.616 47.0321 27.3813 47.0321 27.104C47.0321 26.8267 47.1281 26.592 47.3201 26.4C47.5121 26.208 47.7468 26.112 48.0241 26.112C48.2908 26.112 48.5148 26.208 48.6961 26.4C48.8881 26.592 48.9841 26.8267 48.9841 27.104C48.9841 27.3813 48.8881 27.616 48.6961 27.808C48.5148 28 48.2908 28.096 48.0241 28.096ZM48.0241 21.248C47.7468 21.248 47.5121 21.152 47.3201 20.96C47.1281 20.768 47.0321 20.5333 47.0321 20.256C47.0321 19.9787 47.1281 19.744 47.3201 19.552C47.5121 19.36 47.7468 19.264 48.0241 19.264C48.2908 19.264 48.5148 19.36 48.6961 19.552C48.8881 19.744 48.9841 19.9787 48.9841 20.256C48.9841 20.5333 48.8881 20.768 48.6961 20.96C48.5148 21.152 48.2908 21.248 48.0241 21.248ZM50.7264 22.096C50.7264 20.2613 51.025 18.832 51.6224 17.808C52.2197 16.7733 53.265 16.256 54.7584 16.256C56.241 16.256 57.281 16.7733 57.8784 17.808C58.4757 18.832 58.7744 20.2613 58.7744 22.096C58.7744 23.9627 58.4757 25.4133 57.8784 26.448C57.281 27.4827 56.241 28 54.7584 28C53.265 28 52.2197 27.4827 51.6224 26.448C51.025 25.4133 50.7264 23.9627 50.7264 22.096ZM57.3344 22.096C57.3344 21.168 57.2704 20.384 57.1424 19.744C57.025 19.0933 56.7744 18.5707 56.3904 18.176C56.017 17.7813 55.473 17.584 54.7584 17.584C54.033 17.584 53.4784 17.7813 53.0944 18.176C52.721 18.5707 52.4704 19.0933 52.3424 19.744C52.225 20.384 52.1664 21.168 52.1664 22.096C52.1664 23.056 52.225 23.8613 52.3424 24.512C52.4704 25.1627 52.721 25.6853 53.0944 26.08C53.4784 26.4747 54.033 26.672 54.7584 26.672C55.473 26.672 56.017 26.4747 56.3904 26.08C56.7744 25.6853 57.025 25.1627 57.1424 24.512C57.2704 23.8613 57.3344 23.056 57.3344 22.096ZM60.7733 22.096C60.7733 20.2613 61.0719 18.832 61.6693 17.808C62.2666 16.7733 63.3119 16.256 64.8053 16.256C66.2879 16.256 67.3279 16.7733 67.9253 17.808C68.5226 18.832 68.8212 20.2613 68.8212 22.096C68.8212 23.9627 68.5226 25.4133 67.9253 26.448C67.3279 27.4827 66.2879 28 64.8053 28C63.3119 28 62.2666 27.4827 61.6693 26.448C61.0719 25.4133 60.7733 23.9627 60.7733 22.096ZM67.3813 22.096C67.3813 21.168 67.3173 20.384 67.1893 19.744C67.0719 19.0933 66.8213 18.5707 66.4373 18.176C66.0639 17.7813 65.5199 17.584 64.8053 17.584C64.0799 17.584 63.5253 17.7813 63.1413 18.176C62.7679 18.5707 62.5173 19.0933 62.3893 19.744C62.2719 20.384 62.2133 21.168 62.2133 22.096C62.2133 23.056 62.2719 23.8613 62.3893 24.512C62.5173 25.1627 62.7679 25.6853 63.1413 26.08C63.5253 26.4747 64.0799 26.672 64.8053 26.672C65.5199 26.672 66.0639 26.4747 66.4373 26.08C66.8213 25.6853 67.0719 25.1627 67.1893 24.512C67.3173 23.8613 67.3813 23.056 67.3813 22.096Z" fill="#DB2777"/>
</g>
<path d="M358.271 27.9931H359.982C360.419 27.9931 360.714 27.6891 360.714 27.2401V16.753C360.714 16.304 360.419 16 359.982 16H358.271C357.834 16 357.531 16.304 357.531 16.753V27.2401C357.531 27.6891 357.834 27.9931 358.271 27.9931Z" fill="#DB2777"/>
<path d="M353.003 27.9931H354.7C355.137 27.9931 355.44 27.6891 355.44 27.2401V19.4819C355.44 19.0329 355.137 18.7289 354.7 18.7289H353.003C352.559 18.7289 352.264 19.0329 352.264 19.4819V27.2401C352.264 27.6891 352.559 27.9931 353.003 27.9931Z" fill="#DB2777"/>
<path d="M347.728 27.9931H349.425C349.869 27.9931 350.165 27.6891 350.165 27.2401V21.9828C350.165 21.5337 349.869 21.2297 349.425 21.2297H347.728C347.285 21.2297 346.989 21.5337 346.989 21.9828V27.2401C346.989 27.6891 347.285 27.9931 347.728 27.9931Z" fill="#DB2777"/>
<path d="M342.454 27.9931H344.151C344.595 27.9931 344.89 27.6891 344.89 27.2401V24.1382C344.89 23.6891 344.595 23.3921 344.151 23.3921H342.454C342.01 23.3921 341.714 23.6891 341.714 24.1382V27.2401C341.714 27.6891 342.01 27.9931 342.454 27.9931Z" fill="#DB2777"/>
<path d="M366.783 21.0584C366.925 21.1955 367.123 21.1955 367.257 21.0512C368.997 19.1679 371.289 18.1721 373.856 18.1721C376.437 18.1721 378.743 19.1751 380.469 21.0584C380.596 21.1883 380.787 21.1811 380.928 21.044L381.904 20.0482C382.032 19.9183 382.025 19.7596 381.926 19.6369C380.264 17.5443 377.138 16.0073 373.856 16.0073C370.581 16.0073 367.441 17.5443 365.786 19.6369C365.687 19.7596 365.687 19.9183 365.807 20.0482L366.783 21.0584Z" fill="#DB2777"/>
<path d="M369.718 24.0746C369.874 24.2261 370.065 24.2045 370.206 24.0458C371.055 23.086 372.441 22.3861 373.856 22.3933C375.285 22.3861 376.671 23.1077 377.534 24.0674C377.661 24.2189 377.838 24.2117 377.993 24.0674L379.09 22.9562C379.203 22.8407 379.217 22.682 379.111 22.5521C378.043 21.2171 376.062 20.2141 373.856 20.2141C371.649 20.2141 369.669 21.2171 368.601 22.5521C368.495 22.682 368.502 22.8263 368.622 22.9562L369.718 24.0746Z" fill="#DB2777"/>
<path d="M373.856 27.9999C374.012 27.9999 374.146 27.9278 374.422 27.6536L376.148 25.9651C376.254 25.8568 376.282 25.6981 376.183 25.5682C375.723 24.9621 374.853 24.4353 373.856 24.4353C372.831 24.4353 371.961 24.9837 371.501 25.6115C371.43 25.727 371.459 25.8568 371.572 25.9651L373.29 27.6536C373.566 27.9206 373.701 27.9999 373.856 27.9999Z" fill="#DB2777"/>
<path d="M391.142 28H403.356C404.685 28 405.804 27.8581 406.597 26.9534C407.389 26.0488 407.506 24.7894 407.506 23.2727V20.7273C407.506 19.2106 407.389 17.9512 406.597 17.0466C405.804 16.1419 404.685 16 403.356 16H391.126C389.821 16 388.702 16.1419 387.909 17.0466C387.117 17.9512 387 19.2195 387 20.7007V23.2727C387 24.7894 387.117 26.0488 387.909 26.9534C388.702 27.8581 389.821 28 391.142 28ZM390.932 26.572C390.131 26.572 389.292 26.4479 388.818 25.9158C388.352 25.3748 388.251 24.4257 388.251 23.5122V20.5055C388.251 19.5743 388.352 18.6253 388.818 18.0843C389.292 17.5432 390.139 17.4279 390.955 17.4279H403.574C404.374 17.4279 405.214 17.5521 405.68 18.0843C406.154 18.6253 406.255 19.5654 406.255 20.4789V23.5122C406.255 24.4257 406.154 25.3748 405.68 25.9158C405.214 26.4479 404.374 26.572 403.574 26.572H390.932ZM408.563 24.2927C409.176 24.2483 410 23.3525 410 21.9956C410 20.6475 409.176 19.7517 408.563 19.7073V24.2927Z" fill="#DB2777"/>
<path d="M390.52 25.5432H403.986C404.522 25.5432 404.833 25.4546 405.05 25.2062C405.26 24.9579 405.346 24.6031 405.346 23.9912V20.0089C405.346 19.3969 405.26 19.0422 405.05 18.7938C404.833 18.5455 404.514 18.4568 403.986 18.4568H390.543C389.984 18.4568 389.665 18.5455 389.455 18.7938C389.238 19.0422 389.16 19.4058 389.16 20.0266V23.9912C389.16 24.6031 389.238 24.9579 389.455 25.2062C389.673 25.4546 389.992 25.5432 390.52 25.5432Z" fill="#DB2777"/>
<path d="M79.9261 112.631C79.8314 111.589 79.41 110.779 78.6619 110.202C77.9233 109.615 76.8674 109.321 75.4943 109.321C74.5852 109.321 73.8277 109.439 73.2216 109.676C72.6155 109.913 72.161 110.24 71.858 110.656C71.5549 111.063 71.3987 111.532 71.3892 112.062C71.3703 112.498 71.4555 112.882 71.6449 113.213C71.8438 113.545 72.1278 113.838 72.4972 114.094C72.8759 114.34 73.3305 114.558 73.8608 114.747C74.3911 114.937 74.9877 115.102 75.6506 115.244L78.1506 115.812C79.59 116.125 80.8589 116.542 81.9574 117.062C83.0653 117.583 83.9934 118.204 84.7415 118.923C85.4991 119.643 86.072 120.472 86.4602 121.409C86.8485 122.347 87.0473 123.398 87.0568 124.562C87.0473 126.4 86.5833 127.976 85.6648 129.293C84.7462 130.609 83.4252 131.617 81.7017 132.318C79.9877 133.019 77.9186 133.369 75.4943 133.369C73.0606 133.369 70.9394 133.005 69.1307 132.276C67.322 131.546 65.9157 130.438 64.9119 128.952C63.9081 127.465 63.392 125.585 63.3636 123.312H70.0966C70.1534 124.25 70.4044 125.031 70.8494 125.656C71.2945 126.281 71.9053 126.755 72.6818 127.077C73.4678 127.399 74.3769 127.56 75.4091 127.56C76.3561 127.56 77.161 127.432 77.8239 127.176C78.4962 126.92 79.0123 126.565 79.3722 126.111C79.732 125.656 79.9167 125.135 79.9261 124.548C79.9167 123.999 79.7462 123.53 79.4148 123.142C79.0833 122.744 78.572 122.403 77.8807 122.119C77.1989 121.826 76.3277 121.556 75.267 121.31L72.2273 120.599C69.7083 120.022 67.7244 119.089 66.2756 117.801C64.8267 116.504 64.107 114.752 64.1165 112.545C64.107 110.746 64.59 109.17 65.5653 107.815C66.5407 106.461 67.8902 105.405 69.6136 104.648C71.3371 103.89 73.3021 103.511 75.5085 103.511C77.7623 103.511 79.7178 103.895 81.375 104.662C83.0417 105.42 84.3343 106.485 85.2528 107.858C86.1714 109.231 86.6402 110.822 86.6591 112.631H79.9261ZM104.685 123.582V111.182H111.616V133H104.997V128.938H104.77C104.287 130.273 103.463 131.333 102.298 132.119C101.143 132.896 99.7462 133.284 98.108 133.284C96.6212 133.284 95.3144 132.943 94.1875 132.261C93.0606 131.58 92.1847 130.628 91.5597 129.406C90.9347 128.175 90.6174 126.736 90.608 125.088V111.182H97.554V123.724C97.5634 124.908 97.8759 125.841 98.4915 126.523C99.107 127.205 99.9451 127.545 101.006 127.545C101.697 127.545 102.317 127.394 102.866 127.091C103.425 126.778 103.866 126.329 104.188 125.741C104.519 125.145 104.685 124.425 104.685 123.582ZM122.188 133.369C120.796 133.369 119.56 133.137 118.481 132.673C117.411 132.2 116.563 131.49 115.938 130.543C115.323 129.586 115.015 128.388 115.015 126.949C115.015 125.737 115.228 124.714 115.654 123.881C116.08 123.047 116.667 122.37 117.415 121.849C118.164 121.329 119.025 120.936 120.001 120.67C120.976 120.396 122.018 120.211 123.126 120.116C124.366 120.003 125.365 119.884 126.123 119.761C126.88 119.629 127.43 119.444 127.771 119.207C128.121 118.961 128.296 118.616 128.296 118.17V118.099C128.296 117.37 128.045 116.807 127.543 116.409C127.041 116.011 126.364 115.812 125.512 115.812C124.594 115.812 123.855 116.011 123.296 116.409C122.737 116.807 122.382 117.356 122.231 118.057L115.825 117.83C116.014 116.504 116.502 115.32 117.288 114.278C118.083 113.227 119.172 112.403 120.555 111.807C121.947 111.201 123.618 110.898 125.569 110.898C126.961 110.898 128.244 111.063 129.418 111.395C130.593 111.717 131.615 112.19 132.487 112.815C133.358 113.431 134.03 114.188 134.504 115.088C134.987 115.988 135.228 117.015 135.228 118.17V133H128.694V129.96H128.523C128.135 130.699 127.638 131.324 127.032 131.835C126.435 132.347 125.73 132.73 124.915 132.986C124.111 133.241 123.201 133.369 122.188 133.369ZM124.333 128.824C125.081 128.824 125.754 128.672 126.35 128.369C126.956 128.066 127.439 127.65 127.799 127.119C128.159 126.58 128.339 125.955 128.339 125.244V123.17C128.14 123.275 127.898 123.369 127.614 123.455C127.34 123.54 127.037 123.62 126.705 123.696C126.374 123.772 126.033 123.838 125.683 123.895C125.332 123.952 124.996 124.004 124.674 124.051C124.021 124.155 123.462 124.316 122.998 124.534C122.543 124.752 122.193 125.036 121.947 125.386C121.71 125.727 121.592 126.134 121.592 126.608C121.592 127.328 121.847 127.877 122.359 128.256C122.879 128.634 123.538 128.824 124.333 128.824ZM169.234 111.182L161.748 133H153.793L146.322 111.182H153.637L157.657 126.21H157.884L161.918 111.182H169.234ZM171.897 133V111.182H178.843V133H171.897ZM175.377 108.639C174.402 108.639 173.564 108.317 172.863 107.673C172.162 107.02 171.812 106.234 171.812 105.315C171.812 104.406 172.162 103.63 172.863 102.986C173.564 102.332 174.402 102.006 175.377 102.006C176.362 102.006 177.2 102.332 177.891 102.986C178.592 103.63 178.942 104.406 178.942 105.315C178.942 106.234 178.592 107.02 177.891 107.673C177.2 108.317 176.362 108.639 175.377 108.639ZM183.264 133V103.909H190.21V114.918H190.352C190.636 114.255 191.039 113.616 191.56 113C192.09 112.384 192.762 111.883 193.577 111.494C194.401 111.097 195.385 110.898 196.531 110.898C198.046 110.898 199.462 111.295 200.778 112.091C202.104 112.886 203.174 114.113 203.989 115.77C204.803 117.427 205.21 119.539 205.21 122.105C205.21 124.577 204.817 126.646 204.031 128.312C203.255 129.979 202.204 131.229 200.878 132.062C199.562 132.896 198.098 133.312 196.489 133.312C195.39 133.312 194.438 133.133 193.634 132.773C192.829 132.413 192.152 131.939 191.602 131.352C191.062 130.765 190.646 130.135 190.352 129.463H190.139V133H183.264ZM190.068 122.091C190.068 123.265 190.224 124.288 190.537 125.159C190.859 126.03 191.318 126.707 191.915 127.19C192.521 127.664 193.245 127.901 194.088 127.901C194.94 127.901 195.665 127.664 196.261 127.19C196.858 126.707 197.308 126.03 197.611 125.159C197.923 124.288 198.08 123.265 198.08 122.091C198.08 120.917 197.923 119.899 197.611 119.037C197.308 118.175 196.858 117.508 196.261 117.034C195.674 116.561 194.95 116.324 194.088 116.324C193.236 116.324 192.511 116.556 191.915 117.02C191.318 117.484 190.859 118.147 190.537 119.009C190.224 119.87 190.068 120.898 190.068 122.091ZM219.049 133.412C216.767 133.412 214.797 132.962 213.14 132.062C211.492 131.153 210.223 129.861 209.333 128.185C208.452 126.499 208.012 124.496 208.012 122.176C208.012 119.922 208.457 117.953 209.347 116.267C210.237 114.572 211.492 113.256 213.112 112.318C214.731 111.371 216.639 110.898 218.836 110.898C220.389 110.898 221.809 111.139 223.097 111.622C224.385 112.105 225.498 112.82 226.435 113.767C227.373 114.714 228.102 115.884 228.623 117.276C229.144 118.658 229.404 120.244 229.404 122.034V123.767H210.441V119.733H222.941C222.932 118.994 222.756 118.336 222.415 117.759C222.075 117.181 221.606 116.731 221.009 116.409C220.422 116.078 219.745 115.912 218.978 115.912C218.201 115.912 217.505 116.087 216.89 116.438C216.274 116.778 215.787 117.247 215.427 117.844C215.067 118.431 214.878 119.098 214.859 119.847V123.952C214.859 124.842 215.034 125.623 215.384 126.295C215.735 126.958 216.232 127.474 216.876 127.844C217.52 128.213 218.287 128.398 219.177 128.398C219.792 128.398 220.351 128.312 220.853 128.142C221.355 127.972 221.786 127.721 222.146 127.389C222.505 127.058 222.775 126.651 222.955 126.168L229.333 126.352C229.068 127.782 228.486 129.027 227.586 130.088C226.696 131.139 225.526 131.958 224.077 132.545C222.629 133.123 220.952 133.412 219.049 133.412Z" fill="#DB2777"/>
<rect y="850" width="430" height="81" fill="white"/>
<g filter="url(#filter2_d_652_922)">
<rect x="40" y="865" width="350" height="49.9589" rx="24.9795" fill="#D9D9D9" shape-rendering="crispEdges"/>
<path d="M84.7915 876.417H89.9582L93.4198 893.712C93.538 894.307 93.8615 894.841 94.3338 895.221C94.806 895.602 95.397 895.804 96.0032 895.792H108.558C109.164 895.804 109.755 895.602 110.228 895.221C110.7 894.841 111.023 894.307 111.142 893.712L113.208 882.875H91.2498M96.4165 902.25C96.4165 902.964 95.8382 903.542 95.1248 903.542C94.4115 903.542 93.8332 902.964 93.8332 902.25C93.8332 901.537 94.4115 900.959 95.1248 900.959C95.8382 900.959 96.4165 901.537 96.4165 902.25ZM110.625 902.25C110.625 902.964 110.047 903.542 109.333 903.542C108.62 903.542 108.042 902.964 108.042 902.25C108.042 901.537 108.62 900.959 109.333 900.959C110.047 900.959 110.625 901.537 110.625 902.25Z" stroke="#DB2777" stroke-width="2" stroke-linecap="round" stroke-linejoin="round"/>
<g clip-path="url(#clip2_652_922)">
<path d="M210.208 903.313V889.98H218.208V903.313M202.208 885.98L214.208 876.646L226.208 885.98V900.646C226.208 901.353 225.928 902.032 225.427 902.532C224.927 903.032 224.249 903.313 223.542 903.313H204.875C204.168 903.313 203.49 903.032 202.99 902.532C202.489 902.032 202.208 901.353 202.208 900.646V885.98Z" stroke="#1E1E1E" stroke-width="4" stroke-linecap="round" stroke-linejoin="round"/>
</g>
<path fill-rule="evenodd" clip-rule="evenodd" d="M341.338 878.479C343.475 878.479 345.208 880.27 345.208 882.479V897.479C345.208 899.689 343.475 901.479 341.338 901.479H319.079C316.942 901.479 315.208 899.689 315.208 897.479V882.479C315.208 880.27 316.942 878.479 319.079 878.479H341.338ZM339.852 880.479H341.338C342.406 880.479 343.273 881.375 343.273 882.479V897.479C343.273 898.584 342.406 899.479 341.338 899.479H339.852C340.181 898.891 340.37 898.208 340.37 897.479V882.479C340.37 881.751 340.181 881.068 339.852 880.479ZM336.499 880.479H324.886C323.817 880.479 322.95 881.375 322.95 882.479V897.479C322.95 898.584 323.817 899.479 324.886 899.479H336.499C337.568 899.479 338.434 898.584 338.434 897.479V882.479C338.434 881.375 337.568 880.479 336.499 880.479ZM321.533 899.479C321.203 898.891 321.015 898.208 321.015 897.479V882.479C321.015 881.751 321.203 881.068 321.533 880.479H319.079C318.011 880.479 317.144 881.375 317.144 882.479V897.479C317.144 898.584 318.011 899.479 319.079 899.479H321.533Z" fill="#DB2777"/>
<path d="M330.544 897.934C330.295 897.934 330.093 897.725 330.093 897.468V883.855C330.093 883.597 330.295 883.389 330.544 883.389C330.793 883.389 330.995 883.597 330.995 883.855V897.468C330.995 897.725 330.793 897.934 330.544 897.934ZM333.358 888.332C332.739 888.332 332.265 887.751 331.776 887.36C331.49 887.125 331.081 887.008 330.549 887.008C330.198 887.008 329.904 887.055 329.67 887.15C329.435 887.245 329.259 887.375 329.142 887.542C329.025 887.705 328.964 887.892 328.96 888.105C328.953 888.279 328.986 888.432 329.059 888.565C329.136 888.697 329.246 888.815 329.389 888.917C329.536 889.016 329.712 889.103 329.917 889.178C330.122 889.254 330.353 889.32 330.61 889.377L331.578 889.605C332.135 889.73 332.626 889.896 333.051 890.105C333.48 890.313 333.839 890.561 334.129 890.849C334.422 891.137 334.644 891.468 334.794 891.843C334.945 892.218 335.022 892.639 335.025 893.105C335.022 893.839 334.842 894.47 334.486 894.997C334.131 895.523 333.619 895.926 332.952 896.207C332.289 896.487 331.488 896.627 330.549 896.627C329.607 896.627 328.786 896.481 328.086 896.19C327.386 895.898 326.842 895.455 326.453 894.86C326.282 894.598 326.147 894.305 326.049 893.981C325.827 893.248 326.461 892.605 327.204 892.605H327.494C328.037 892.605 328.437 893.085 328.751 893.542C328.924 893.792 329.16 893.981 329.461 894.11C329.765 894.239 330.117 894.303 330.516 894.303C330.883 894.303 331.195 894.252 331.451 894.15C331.711 894.048 331.911 893.906 332.051 893.724C332.19 893.542 332.261 893.334 332.265 893.099C332.261 892.879 332.195 892.692 332.067 892.536C331.939 892.377 331.741 892.241 331.473 892.127C331.209 892.01 330.872 891.902 330.461 891.803L329.285 891.519C328.31 891.288 327.542 890.915 326.981 890.4C326.42 889.881 326.141 889.18 326.145 888.298C326.141 887.578 326.328 886.947 326.706 886.406C327.084 885.864 327.606 885.442 328.273 885.139C328.94 884.836 329.701 884.684 330.555 884.684C331.427 884.684 332.184 884.837 332.826 885.144C333.471 885.447 333.971 885.873 334.327 886.423C334.436 886.591 334.529 886.768 334.605 886.953C334.901 887.67 334.256 888.332 333.502 888.332H333.358Z" fill="#DB2777"/>
</g>
<g filter="url(#filter3_d_652_922)">
<path d="M133.207 449H333.5C345.926 449 356 459.074 356 471.5C356 483.926 345.926 494 333.5 494H133.207V449Z" fill="white" shape-rendering="crispEdges"/>
<path d="M227.874 477V466.818H232.08C232.842 466.818 233.5 466.956 234.054 467.231C234.611 467.503 235.04 467.894 235.341 468.404C235.643 468.911 235.794 469.513 235.794 470.209C235.794 470.915 235.64 471.515 235.331 472.009C235.023 472.499 234.586 472.874 234.019 473.132C233.452 473.387 232.781 473.515 232.006 473.515H229.346V471.576H231.548C231.919 471.576 232.229 471.528 232.478 471.432C232.73 471.332 232.92 471.183 233.05 470.984C233.179 470.782 233.243 470.524 233.243 470.209C233.243 469.894 233.179 469.634 233.05 469.428C232.92 469.219 232.73 469.064 232.478 468.961C232.226 468.855 231.916 468.802 231.548 468.802H230.335V477H227.874ZM233.606 472.347L236.142 477H233.457L230.971 472.347H233.606ZM240.558 477.144C239.756 477.144 239.066 476.98 238.49 476.652C237.916 476.321 237.474 475.86 237.162 475.27C236.854 474.677 236.7 473.989 236.7 473.207C236.7 472.421 236.854 471.733 237.162 471.143C237.474 470.55 237.916 470.089 238.49 469.761C239.066 469.43 239.756 469.264 240.558 469.264C241.36 469.264 242.048 469.43 242.621 469.761C243.198 470.089 243.64 470.55 243.949 471.143C244.26 471.733 244.416 472.421 244.416 473.207C244.416 473.989 244.26 474.677 243.949 475.27C243.64 475.86 243.198 476.321 242.621 476.652C242.048 476.98 241.36 477.144 240.558 477.144ZM240.573 475.31C240.864 475.31 241.111 475.22 241.314 475.041C241.516 474.862 241.67 474.614 241.776 474.295C241.885 473.977 241.94 473.609 241.94 473.192C241.94 472.768 241.885 472.396 241.776 472.078C241.67 471.76 241.516 471.511 241.314 471.332C241.111 471.153 240.864 471.064 240.573 471.064C240.271 471.064 240.016 471.153 239.807 471.332C239.602 471.511 239.444 471.76 239.335 472.078C239.229 472.396 239.176 472.768 239.176 473.192C239.176 473.609 239.229 473.977 239.335 474.295C239.444 474.614 239.602 474.862 239.807 475.041C240.016 475.22 240.271 475.31 240.573 475.31ZM249.226 477.144C248.42 477.144 247.729 476.978 247.153 476.647C246.579 476.316 246.138 475.855 245.83 475.265C245.522 474.672 245.368 473.986 245.368 473.207C245.368 472.424 245.522 471.738 245.83 471.148C246.142 470.555 246.584 470.093 247.158 469.761C247.734 469.43 248.422 469.264 249.221 469.264C249.927 469.264 250.542 469.392 251.065 469.647C251.592 469.902 252.003 470.263 252.298 470.731C252.597 471.195 252.754 471.74 252.771 472.366H250.499C250.452 471.975 250.32 471.669 250.101 471.447C249.885 471.225 249.604 471.114 249.256 471.114C248.974 471.114 248.727 471.193 248.515 471.352C248.303 471.508 248.137 471.74 248.018 472.048C247.902 472.353 247.844 472.731 247.844 473.182C247.844 473.633 247.902 474.014 248.018 474.325C248.137 474.634 248.303 474.867 248.515 475.026C248.727 475.182 248.974 475.26 249.256 475.26C249.481 475.26 249.68 475.212 249.852 475.116C250.028 475.02 250.172 474.879 250.285 474.693C250.397 474.504 250.469 474.276 250.499 474.007H252.771C252.747 474.637 252.59 475.187 252.298 475.658C252.01 476.128 251.604 476.495 251.08 476.756C250.56 477.015 249.942 477.144 249.226 477.144ZM256.207 474.996L256.217 472.098H256.555L258.703 469.364H261.457L258.265 473.281H257.624L256.207 474.996ZM254.015 477V466.818H256.446V477H254.015ZM258.758 477L256.759 473.828L258.36 472.103L261.567 477H258.758Z" fill="#0085FF"/>
</g>
<g filter="url(#filter4_d_652_922)">
<rect x="75" y="449" width="75.2679" height="45" rx="22.5" fill="#0085FF" shape-rendering="crispEdges"/>
<path d="M96.2389 478.699C95.1309 478.699 94.1485 478.509 93.2915 478.131C92.4392 477.747 91.7668 477.219 91.2744 476.547C90.782 475.875 90.531 475.1 90.5216 474.224H94.0585C94.0727 474.542 94.1745 474.823 94.3639 475.07C94.5533 475.311 94.8113 475.5 95.1381 475.638C95.4648 475.775 95.8364 475.844 96.2531 475.844C96.6698 475.844 97.0367 475.77 97.354 475.624C97.6759 475.472 97.9269 475.266 98.1068 475.006C98.2867 474.741 98.3743 474.437 98.3696 474.097C98.3743 473.756 98.2773 473.453 98.0784 473.188C97.8795 472.922 97.5978 472.716 97.2332 472.57C96.8734 472.423 96.4472 472.349 95.9548 472.349H94.5415V469.849H95.9548C96.3857 469.849 96.7645 469.778 97.0912 469.636C97.4226 469.494 97.6807 469.295 97.8653 469.04C98.05 468.779 98.1399 468.481 98.1352 468.145C98.1399 467.818 98.0618 467.532 97.9008 467.286C97.7446 467.035 97.5244 466.84 97.2403 466.703C96.961 466.566 96.6366 466.497 96.2673 466.497C95.8791 466.497 95.5263 466.566 95.2091 466.703C94.8966 466.84 94.648 467.035 94.4633 467.286C94.2787 467.536 94.1816 467.828 94.1721 468.159H90.8128C90.8222 467.293 91.0637 466.53 91.5372 465.872C92.0107 465.209 92.6546 464.691 93.469 464.317C94.2881 463.943 95.2209 463.756 96.2673 463.756C97.309 463.756 98.2252 463.938 99.0159 464.303C99.8066 464.667 100.422 465.164 100.862 465.794C101.303 466.419 101.523 467.127 101.523 467.918C101.528 468.737 101.26 469.411 100.72 469.942C100.185 470.472 99.4965 470.799 98.6537 470.922V471.036C99.7806 471.168 100.63 471.533 101.203 472.129C101.781 472.726 102.068 473.472 102.063 474.366C102.063 475.209 101.814 475.957 101.317 476.611C100.825 477.259 100.138 477.771 99.2574 478.145C98.3814 478.514 97.3753 478.699 96.2389 478.699ZM110.062 478.855C108.793 478.855 107.699 478.554 106.78 477.953C105.862 477.347 105.154 476.478 104.657 475.347C104.16 474.21 103.914 472.844 103.918 471.249C103.923 469.653 104.172 468.299 104.664 467.186C105.161 466.069 105.867 465.219 106.78 464.636C107.699 464.049 108.793 463.756 110.062 463.756C111.331 463.756 112.424 464.049 113.343 464.636C114.266 465.219 114.976 466.069 115.474 467.186C115.971 468.304 116.217 469.658 116.212 471.249C116.212 472.849 115.964 474.217 115.467 475.354C114.969 476.49 114.262 477.359 113.343 477.96C112.429 478.557 111.335 478.855 110.062 478.855ZM110.062 475.979C110.819 475.979 111.432 475.593 111.901 474.821C112.37 474.045 112.602 472.854 112.597 471.249C112.597 470.197 112.491 469.331 112.278 468.649C112.065 467.963 111.769 467.451 111.39 467.115C111.011 466.779 110.568 466.611 110.062 466.611C109.309 466.611 108.7 466.992 108.236 467.754C107.772 468.512 107.538 469.677 107.533 471.249C107.529 472.314 107.63 473.197 107.839 473.898C108.052 474.598 108.35 475.122 108.734 475.467C109.117 475.808 109.56 475.979 110.062 475.979ZM126.372 475.773V475.006C126.372 474.409 126.5 473.857 126.756 473.351C127.016 472.844 127.392 472.437 127.885 472.129C128.377 471.821 128.979 471.668 129.689 471.668C130.413 471.668 131.022 471.821 131.514 472.129C132.011 472.432 132.385 472.837 132.636 473.344C132.892 473.846 133.02 474.4 133.02 475.006V475.773C133.02 476.369 132.892 476.921 132.636 477.428C132.381 477.934 132.004 478.341 131.507 478.649C131.01 478.957 130.404 479.111 129.689 479.111C128.969 479.111 128.363 478.957 127.871 478.649C127.378 478.341 127.004 477.934 126.748 477.428C126.498 476.921 126.372 476.369 126.372 475.773ZM128.638 475.006V475.773C128.638 476.076 128.711 476.367 128.858 476.646C129.009 476.926 129.286 477.065 129.689 477.065C130.101 477.065 130.378 476.93 130.52 476.661C130.662 476.386 130.733 476.09 130.733 475.773V475.006C130.733 474.688 130.664 474.39 130.527 474.111C130.394 473.827 130.115 473.685 129.689 473.685C129.291 473.685 129.016 473.827 128.865 474.111C128.713 474.39 128.638 474.688 128.638 475.006ZM118.829 467.449V466.682C118.829 466.076 118.96 465.522 119.22 465.02C119.485 464.513 119.864 464.108 120.356 463.805C120.849 463.498 121.445 463.344 122.146 463.344C122.871 463.344 123.479 463.498 123.972 463.805C124.469 464.108 124.845 464.513 125.101 465.02C125.356 465.522 125.484 466.076 125.484 466.682V467.449C125.484 468.055 125.354 468.609 125.094 469.111C124.838 469.613 124.462 470.013 123.964 470.311C123.467 470.609 122.861 470.759 122.146 470.759C121.431 470.759 120.825 470.607 120.328 470.304C119.836 470.001 119.462 469.598 119.206 469.097C118.955 468.595 118.829 468.045 118.829 467.449ZM121.116 466.682V467.449C121.116 467.766 121.19 468.062 121.337 468.337C121.488 468.607 121.758 468.741 122.146 468.741C122.563 468.741 122.84 468.607 122.977 468.337C123.119 468.062 123.19 467.766 123.19 467.449V466.682C123.19 466.365 123.124 466.066 122.991 465.787C122.859 465.503 122.577 465.361 122.146 465.361C121.748 465.361 121.476 465.505 121.329 465.794C121.187 466.083 121.116 466.379 121.116 466.682ZM119.902 478.5L129.902 463.955H131.841L121.841 478.5H119.902Z" fill="white"/>
</g>
<g filter="url(#filter5_d_652_922)">
<path d="M133.207 519H333.5C345.926 519 356 529.074 356 541.5C356 553.926 345.926 564 333.5 564H133.207V519Z" fill="white" shape-rendering="crispEdges"/>
<path d="M228.374 547V536.818H235.324V538.817H230.835V540.905H234.882V542.908H230.835V547H228.374ZM241.012 543.704V539.364H243.438V547H241.121V545.578H241.042C240.873 546.045 240.584 546.417 240.177 546.692C239.772 546.964 239.283 547.099 238.71 547.099C238.19 547.099 237.732 546.98 237.338 546.741C236.943 546.503 236.637 546.17 236.418 545.742C236.199 545.311 236.088 544.808 236.085 544.231V539.364H238.516V543.754C238.519 544.168 238.629 544.494 238.844 544.733C239.06 544.972 239.353 545.091 239.724 545.091C239.966 545.091 240.183 545.038 240.376 544.932C240.571 544.822 240.725 544.665 240.838 544.46C240.954 544.251 241.012 543.999 241.012 543.704ZM247.417 542.645V547H244.985V539.364H247.297V540.766H247.382C247.551 540.298 247.839 539.932 248.247 539.667C248.654 539.398 249.14 539.264 249.703 539.264C250.24 539.264 250.706 539.385 251.1 539.627C251.498 539.866 251.806 540.201 252.025 540.631C252.247 541.059 252.357 541.559 252.353 542.133V547H249.922V542.61C249.926 542.186 249.818 541.854 249.599 541.616C249.384 541.377 249.084 541.258 248.699 541.258C248.444 541.258 248.219 541.314 248.023 541.427C247.831 541.536 247.682 541.694 247.576 541.899C247.473 542.105 247.42 542.353 247.417 542.645ZM256.051 544.996L256.061 542.098H256.399L258.547 539.364H261.301L258.109 543.281H257.468L256.051 544.996ZM253.858 547V536.818H256.29V547H253.858ZM258.601 547L256.603 543.828L258.204 542.103L261.41 547H258.601Z" fill="#6BD600"/>
</g>
<g filter="url(#filter6_d_652_922)">
<rect x="75" y="519" width="75.2679" height="45" rx="22.5" fill="#6BD600" shape-rendering="crispEdges"/>
<path d="M96.2389 548.699C95.1309 548.699 94.1485 548.509 93.2915 548.131C92.4392 547.747 91.7668 547.219 91.2744 546.547C90.782 545.875 90.531 545.1 90.5216 544.224H94.0585C94.0727 544.542 94.1745 544.823 94.3639 545.07C94.5533 545.311 94.8113 545.5 95.1381 545.638C95.4648 545.775 95.8364 545.844 96.2531 545.844C96.6698 545.844 97.0367 545.77 97.354 545.624C97.6759 545.472 97.9269 545.266 98.1068 545.006C98.2867 544.741 98.3743 544.437 98.3696 544.097C98.3743 543.756 98.2773 543.453 98.0784 543.188C97.8795 542.922 97.5978 542.716 97.2332 542.57C96.8734 542.423 96.4472 542.349 95.9548 542.349H94.5415V539.849H95.9548C96.3857 539.849 96.7645 539.778 97.0912 539.636C97.4226 539.494 97.6807 539.295 97.8653 539.04C98.05 538.779 98.1399 538.481 98.1352 538.145C98.1399 537.818 98.0618 537.532 97.9008 537.286C97.7446 537.035 97.5244 536.84 97.2403 536.703C96.961 536.566 96.6366 536.497 96.2673 536.497C95.8791 536.497 95.5263 536.566 95.2091 536.703C94.8966 536.84 94.648 537.035 94.4633 537.286C94.2787 537.536 94.1816 537.828 94.1721 538.159H90.8128C90.8222 537.293 91.0637 536.53 91.5372 535.872C92.0107 535.209 92.6546 534.691 93.469 534.317C94.2881 533.943 95.2209 533.756 96.2673 533.756C97.309 533.756 98.2252 533.938 99.0159 534.303C99.8066 534.667 100.422 535.164 100.862 535.794C101.303 536.419 101.523 537.127 101.523 537.918C101.528 538.737 101.26 539.411 100.72 539.942C100.185 540.472 99.4965 540.799 98.6537 540.922V541.036C99.7806 541.168 100.63 541.533 101.203 542.129C101.781 542.726 102.068 543.472 102.063 544.366C102.063 545.209 101.814 545.957 101.317 546.611C100.825 547.259 100.138 547.771 99.2574 548.145C98.3814 548.514 97.3753 548.699 96.2389 548.699ZM110.062 548.855C108.793 548.855 107.699 548.554 106.78 547.953C105.862 547.347 105.154 546.478 104.657 545.347C104.16 544.21 103.914 542.844 103.918 541.249C103.923 539.653 104.172 538.299 104.664 537.186C105.161 536.069 105.867 535.219 106.78 534.636C107.699 534.049 108.793 533.756 110.062 533.756C111.331 533.756 112.424 534.049 113.343 534.636C114.266 535.219 114.976 536.069 115.474 537.186C115.971 538.304 116.217 539.658 116.212 541.249C116.212 542.849 115.964 544.217 115.467 545.354C114.969 546.49 114.262 547.359 113.343 547.96C112.429 548.557 111.335 548.855 110.062 548.855ZM110.062 545.979C110.819 545.979 111.432 545.593 111.901 544.821C112.37 544.045 112.602 542.854 112.597 541.249C112.597 540.197 112.491 539.331 112.278 538.649C112.065 537.963 111.769 537.451 111.39 537.115C111.011 536.779 110.568 536.611 110.062 536.611C109.309 536.611 108.7 536.992 108.236 537.754C107.772 538.512 107.538 539.677 107.533 541.249C107.529 542.314 107.63 543.197 107.839 543.898C108.052 544.598 108.35 545.122 108.734 545.467C109.117 545.808 109.56 545.979 110.062 545.979ZM126.372 545.773V545.006C126.372 544.409 126.5 543.857 126.756 543.351C127.016 542.844 127.392 542.437 127.885 542.129C128.377 541.821 128.979 541.668 129.689 541.668C130.413 541.668 131.022 541.821 131.514 542.129C132.011 542.432 132.385 542.837 132.636 543.344C132.892 543.846 133.02 544.4 133.02 545.006V545.773C133.02 546.369 132.892 546.921 132.636 547.428C132.381 547.934 132.004 548.341 131.507 548.649C131.01 548.957 130.404 549.111 129.689 549.111C128.969 549.111 128.363 548.957 127.871 548.649C127.378 548.341 127.004 547.934 126.748 547.428C126.498 546.921 126.372 546.369 126.372 545.773ZM128.638 545.006V545.773C128.638 546.076 128.711 546.367 128.858 546.646C129.009 546.926 129.286 547.065 129.689 547.065C130.101 547.065 130.378 546.93 130.52 546.661C130.662 546.386 130.733 546.09 130.733 545.773V545.006C130.733 544.688 130.664 544.39 130.527 544.111C130.394 543.827 130.115 543.685 129.689 543.685C129.291 543.685 129.016 543.827 128.865 544.111C128.713 544.39 128.638 544.688 128.638 545.006ZM118.829 537.449V536.682C118.829 536.076 118.96 535.522 119.22 535.02C119.485 534.513 119.864 534.108 120.356 533.805C120.849 533.498 121.445 533.344 122.146 533.344C122.871 533.344 123.479 533.498 123.972 533.805C124.469 534.108 124.845 534.513 125.101 535.02C125.356 535.522 125.484 536.076 125.484 536.682V537.449C125.484 538.055 125.354 538.609 125.094 539.111C124.838 539.613 124.462 540.013 123.964 540.311C123.467 540.609 122.861 540.759 122.146 540.759C121.431 540.759 120.825 540.607 120.328 540.304C119.836 540.001 119.462 539.598 119.206 539.097C118.955 538.595 118.829 538.045 118.829 537.449ZM121.116 536.682V537.449C121.116 537.766 121.19 538.062 121.337 538.337C121.488 538.607 121.758 538.741 122.146 538.741C122.563 538.741 122.84 538.607 122.977 538.337C123.119 538.062 123.19 537.766 123.19 537.449V536.682C123.19 536.365 123.124 536.066 122.991 535.787C122.859 535.503 122.577 535.361 122.146 535.361C121.748 535.361 121.476 535.505 121.329 535.794C121.187 536.083 121.116 536.379 121.116 536.682ZM119.902 548.5L129.902 533.955H131.841L121.841 548.5H119.902Z" fill="white"/>
</g>
<g filter="url(#filter7_d_652_922)">
<path d="M133.207 589H333.5C345.926 589 356 599.074 356 611.5C356 623.926 345.926 634 333.5 634H133.207V589Z" fill="white" shape-rendering="crispEdges"/>
<path d="M233.01 606.818H235.437V613.858C235.433 614.518 235.276 615.094 234.964 615.588C234.653 616.079 234.222 616.46 233.672 616.732C233.125 617.003 232.492 617.139 231.773 617.139C231.136 617.139 230.558 617.028 230.037 616.806C229.52 616.584 229.108 616.239 228.8 615.772C228.495 615.305 228.344 614.706 228.347 613.977H230.798C230.808 614.239 230.858 614.463 230.947 614.648C231.04 614.831 231.168 614.968 231.33 615.061C231.492 615.154 231.686 615.2 231.912 615.2C232.147 615.2 232.346 615.151 232.508 615.051C232.671 614.948 232.793 614.798 232.876 614.599C232.962 614.4 233.007 614.153 233.01 613.858V606.818ZM239.134 617.129C238.647 617.129 238.214 617.048 237.837 616.886C237.462 616.72 237.165 616.471 236.947 616.14C236.731 615.805 236.624 615.386 236.624 614.882C236.624 614.458 236.698 614.1 236.847 613.808C236.996 613.517 237.202 613.28 237.464 613.097C237.726 612.915 238.027 612.777 238.369 612.685C238.71 612.589 239.075 612.524 239.462 612.491C239.897 612.451 240.246 612.41 240.511 612.366C240.777 612.32 240.969 612.255 241.088 612.173C241.211 612.086 241.272 611.965 241.272 611.81V611.785C241.272 611.53 241.184 611.332 241.009 611.193C240.833 611.054 240.596 610.984 240.298 610.984C239.976 610.984 239.718 611.054 239.522 611.193C239.326 611.332 239.202 611.525 239.149 611.77L236.907 611.69C236.973 611.226 237.144 610.812 237.419 610.447C237.697 610.08 238.079 609.791 238.562 609.582C239.05 609.37 239.635 609.264 240.317 609.264C240.805 609.264 241.254 609.322 241.665 609.438C242.076 609.551 242.434 609.717 242.739 609.935C243.044 610.151 243.279 610.416 243.445 610.731C243.614 611.046 243.698 611.405 243.698 611.81V617H241.411V615.936H241.352C241.216 616.195 241.042 616.413 240.83 616.592C240.621 616.771 240.374 616.906 240.089 616.995C239.807 617.085 239.489 617.129 239.134 617.129ZM239.885 615.538C240.147 615.538 240.382 615.485 240.591 615.379C240.803 615.273 240.972 615.127 241.098 614.942C241.224 614.753 241.287 614.534 241.287 614.286V613.56C241.217 613.596 241.133 613.629 241.033 613.659C240.937 613.689 240.831 613.717 240.715 613.744C240.599 613.77 240.48 613.793 240.357 613.813C240.235 613.833 240.117 613.851 240.004 613.868C239.776 613.904 239.58 613.961 239.418 614.037C239.259 614.113 239.136 614.213 239.05 614.335C238.967 614.455 238.925 614.597 238.925 614.763C238.925 615.015 239.015 615.207 239.194 615.339C239.376 615.472 239.607 615.538 239.885 615.538ZM245.205 617V615.613L248.744 611.303V611.253H245.329V609.364H251.643V610.885L248.362 615.061V615.111H251.762V617H245.205ZM253.353 617V615.613L256.893 611.303V611.253H253.477V609.364H259.791V610.885L256.51 615.061V615.111H259.911V617H253.353Z" fill="#FFB800"/>
</g>
<g filter="url(#filter8_d_652_922)">
<rect x="75" y="589" width="75.2679" height="45" rx="22.5" fill="#FFB800" shape-rendering="crispEdges"/>
<path d="M96.2389 618.699C95.1309 618.699 94.1485 618.509 93.2915 618.131C92.4392 617.747 91.7668 617.219 91.2744 616.547C90.782 615.875 90.531 615.1 90.5216 614.224H94.0585C94.0727 614.542 94.1745 614.823 94.3639 615.07C94.5533 615.311 94.8113 615.5 95.1381 615.638C95.4648 615.775 95.8364 615.844 96.2531 615.844C96.6698 615.844 97.0367 615.77 97.354 615.624C97.6759 615.472 97.9269 615.266 98.1068 615.006C98.2867 614.741 98.3743 614.437 98.3696 614.097C98.3743 613.756 98.2773 613.453 98.0784 613.188C97.8795 612.922 97.5978 612.716 97.2332 612.57C96.8734 612.423 96.4472 612.349 95.9548 612.349H94.5415V609.849H95.9548C96.3857 609.849 96.7645 609.778 97.0912 609.636C97.4226 609.494 97.6807 609.295 97.8653 609.04C98.05 608.779 98.1399 608.481 98.1352 608.145C98.1399 607.818 98.0618 607.532 97.9008 607.286C97.7446 607.035 97.5244 606.84 97.2403 606.703C96.961 606.566 96.6366 606.497 96.2673 606.497C95.8791 606.497 95.5263 606.566 95.2091 606.703C94.8966 606.84 94.648 607.035 94.4633 607.286C94.2787 607.536 94.1816 607.828 94.1721 608.159H90.8128C90.8222 607.293 91.0637 606.53 91.5372 605.872C92.0107 605.209 92.6546 604.691 93.469 604.317C94.2881 603.943 95.2209 603.756 96.2673 603.756C97.309 603.756 98.2252 603.938 99.0159 604.303C99.8066 604.667 100.422 605.164 100.862 605.794C101.303 606.419 101.523 607.127 101.523 607.918C101.528 608.737 101.26 609.411 100.72 609.942C100.185 610.472 99.4965 610.799 98.6537 610.922V611.036C99.7806 611.168 100.63 611.533 101.203 612.129C101.781 612.726 102.068 613.472 102.063 614.366C102.063 615.209 101.814 615.957 101.317 616.611C100.825 617.259 100.138 617.771 99.2574 618.145C98.3814 618.514 97.3753 618.699 96.2389 618.699ZM110.062 618.855C108.793 618.855 107.699 618.554 106.78 617.953C105.862 617.347 105.154 616.478 104.657 615.347C104.16 614.21 103.914 612.844 103.918 611.249C103.923 609.653 104.172 608.299 104.664 607.186C105.161 606.069 105.867 605.219 106.78 604.636C107.699 604.049 108.793 603.756 110.062 603.756C111.331 603.756 112.424 604.049 113.343 604.636C114.266 605.219 114.976 606.069 115.474 607.186C115.971 608.304 116.217 609.658 116.212 611.249C116.212 612.849 115.964 614.217 115.467 615.354C114.969 616.49 114.262 617.359 113.343 617.96C112.429 618.557 111.335 618.855 110.062 618.855ZM110.062 615.979C110.819 615.979 111.432 615.593 111.901 614.821C112.37 614.045 112.602 612.854 112.597 611.249C112.597 610.197 112.491 609.331 112.278 608.649C112.065 607.963 111.769 607.451 111.39 607.115C111.011 606.779 110.568 606.611 110.062 606.611C109.309 606.611 108.7 606.992 108.236 607.754C107.772 608.512 107.538 609.677 107.533 611.249C107.529 612.314 107.63 613.197 107.839 613.898C108.052 614.598 108.35 615.122 108.734 615.467C109.117 615.808 109.56 615.979 110.062 615.979ZM126.372 615.773V615.006C126.372 614.409 126.5 613.857 126.756 613.351C127.016 612.844 127.392 612.437 127.885 612.129C128.377 611.821 128.979 611.668 129.689 611.668C130.413 611.668 131.022 611.821 131.514 612.129C132.011 612.432 132.385 612.837 132.636 613.344C132.892 613.846 133.02 614.4 133.02 615.006V615.773C133.02 616.369 132.892 616.921 132.636 617.428C132.381 617.934 132.004 618.341 131.507 618.649C131.01 618.957 130.404 619.111 129.689 619.111C128.969 619.111 128.363 618.957 127.871 618.649C127.378 618.341 127.004 617.934 126.748 617.428C126.498 616.921 126.372 616.369 126.372 615.773ZM128.638 615.006V615.773C128.638 616.076 128.711 616.367 128.858 616.646C129.009 616.926 129.286 617.065 129.689 617.065C130.101 617.065 130.378 616.93 130.52 616.661C130.662 616.386 130.733 616.09 130.733 615.773V615.006C130.733 614.688 130.664 614.39 130.527 614.111C130.394 613.827 130.115 613.685 129.689 613.685C129.291 613.685 129.016 613.827 128.865 614.111C128.713 614.39 128.638 614.688 128.638 615.006ZM118.829 607.449V606.682C118.829 606.076 118.96 605.522 119.22 605.02C119.485 604.513 119.864 604.108 120.356 603.805C120.849 603.498 121.445 603.344 122.146 603.344C122.871 603.344 123.479 603.498 123.972 603.805C124.469 604.108 124.845 604.513 125.101 605.02C125.356 605.522 125.484 606.076 125.484 606.682V607.449C125.484 608.055 125.354 608.609 125.094 609.111C124.838 609.613 124.462 610.013 123.964 610.311C123.467 610.609 122.861 610.759 122.146 610.759C121.431 610.759 120.825 610.607 120.328 610.304C119.836 610.001 119.462 609.598 119.206 609.097C118.955 608.595 118.829 608.045 118.829 607.449ZM121.116 606.682V607.449C121.116 607.766 121.19 608.062 121.337 608.337C121.488 608.607 121.758 608.741 122.146 608.741C122.563 608.741 122.84 608.607 122.977 608.337C123.119 608.062 123.19 607.766 123.19 607.449V606.682C123.19 606.365 123.124 606.066 122.991 605.787C122.859 605.503 122.577 605.361 122.146 605.361C121.748 605.361 121.476 605.505 121.329 605.794C121.187 606.083 121.116 606.379 121.116 606.682ZM119.902 618.5L129.902 603.955H131.841L121.841 618.5H119.902Z" fill="white"/>
</g>
<g filter="url(#filter9_d_652_922)">
<path d="M133.207 659H333.5C345.926 659 356 669.074 356 681.5C356 693.926 345.926 704 333.5 704H133.207V659Z" fill="white" shape-rendering="crispEdges"/>
<path d="M230.374 687V676.818H234.58C235.342 676.818 236 676.967 236.554 677.266C237.111 677.561 237.54 677.973 237.841 678.504C238.143 679.031 238.294 679.644 238.294 680.343C238.294 681.046 238.14 681.661 237.831 682.188C237.527 682.711 237.091 683.117 236.524 683.406C235.957 683.694 235.284 683.838 234.506 683.838H231.91V681.899H234.048C234.419 681.899 234.729 681.835 234.978 681.705C235.23 681.576 235.42 681.395 235.55 681.163C235.679 680.928 235.743 680.655 235.743 680.343C235.743 680.028 235.679 679.756 235.55 679.528C235.42 679.296 235.23 679.117 234.978 678.991C234.726 678.865 234.416 678.802 234.048 678.802H232.835V687H230.374ZM249.117 681.909C249.117 683.029 248.902 683.979 248.471 684.758C248.04 685.537 247.456 686.128 246.721 686.533C245.988 686.937 245.166 687.139 244.255 687.139C243.34 687.139 242.516 686.935 241.784 686.528C241.051 686.12 240.47 685.528 240.039 684.753C239.611 683.974 239.398 683.026 239.398 681.909C239.398 680.789 239.611 679.839 240.039 679.06C240.47 678.281 241.051 677.69 241.784 677.286C242.516 676.881 243.34 676.679 244.255 676.679C245.166 676.679 245.988 676.881 246.721 677.286C247.456 677.69 248.04 678.281 248.471 679.06C248.902 679.839 249.117 680.789 249.117 681.909ZM246.601 681.909C246.601 681.246 246.507 680.686 246.318 680.229C246.132 679.771 245.864 679.425 245.513 679.19C245.165 678.954 244.745 678.837 244.255 678.837C243.768 678.837 243.348 678.954 242.997 679.19C242.646 679.425 242.376 679.771 242.187 680.229C242.001 680.686 241.908 681.246 241.908 681.909C241.908 682.572 242.001 683.132 242.187 683.589C242.376 684.047 242.646 684.393 242.997 684.629C243.348 684.864 243.768 684.982 244.255 684.982C244.745 684.982 245.165 684.864 245.513 684.629C245.864 684.393 246.132 684.047 246.318 683.589C246.507 683.132 246.601 682.572 246.601 681.909ZM250.554 687V676.818H254.76C255.522 676.818 256.18 676.967 256.733 677.266C257.29 677.561 257.72 677.973 258.021 678.504C258.323 679.031 258.474 679.644 258.474 680.343C258.474 681.046 258.319 681.661 258.011 682.188C257.706 682.711 257.27 683.117 256.704 683.406C256.137 683.694 255.464 683.838 254.685 683.838H252.09V681.899H254.228C254.599 681.899 254.909 681.835 255.157 681.705C255.409 681.576 255.6 681.395 255.729 681.163C255.858 680.928 255.923 680.655 255.923 680.343C255.923 680.028 255.858 679.756 255.729 679.528C255.6 679.296 255.409 679.117 255.157 678.991C254.906 678.865 254.596 678.802 254.228 678.802H253.015V687H250.554Z" fill="#DB2777"/>
</g>
<g filter="url(#filter10_d_652_922)">
<rect x="75" y="659" width="75.2679" height="45" rx="22.5" fill="#DB2777" shape-rendering="crispEdges"/>
<path d="M99.4321 673.955V688.5H95.9236V677.236H95.8383L92.5855 679.224V676.185L96.1721 673.955H99.4321ZM108.663 688.855C107.394 688.855 106.301 688.554 105.382 687.953C104.463 687.347 103.756 686.478 103.258 685.347C102.761 684.21 102.515 682.844 102.52 681.249C102.525 679.653 102.773 678.299 103.266 677.186C103.763 676.069 104.468 675.219 105.382 674.636C106.301 674.049 107.394 673.756 108.663 673.756C109.932 673.756 111.026 674.049 111.945 674.636C112.868 675.219 113.578 676.069 114.075 677.186C114.572 678.304 114.819 679.658 114.814 681.249C114.814 682.849 114.565 684.217 114.068 685.354C113.571 686.49 112.863 687.359 111.945 687.96C111.031 688.557 109.937 688.855 108.663 688.855ZM108.663 685.979C109.421 685.979 110.034 685.593 110.503 684.821C110.972 684.045 111.204 682.854 111.199 681.249C111.199 680.197 111.092 679.331 110.879 678.649C110.666 677.963 110.37 677.451 109.991 677.115C109.613 676.779 109.17 676.611 108.663 676.611C107.91 676.611 107.302 676.992 106.838 677.754C106.374 678.512 106.14 679.677 106.135 681.249C106.13 682.314 106.232 683.197 106.44 683.898C106.653 684.598 106.952 685.122 107.335 685.467C107.719 685.808 108.161 685.979 108.663 685.979ZM124.974 685.773V685.006C124.974 684.409 125.101 683.857 125.357 683.351C125.618 682.844 125.994 682.437 126.486 682.129C126.979 681.821 127.58 681.668 128.29 681.668C129.015 681.668 129.623 681.821 130.116 682.129C130.613 682.432 130.987 682.837 131.238 683.344C131.494 683.846 131.621 684.4 131.621 685.006V685.773C131.621 686.369 131.494 686.921 131.238 687.428C130.982 687.934 130.606 688.341 130.109 688.649C129.611 688.957 129.005 689.111 128.29 689.111C127.571 689.111 126.965 688.957 126.472 688.649C125.98 688.341 125.606 687.934 125.35 687.428C125.099 686.921 124.974 686.369 124.974 685.773ZM127.239 685.006V685.773C127.239 686.076 127.313 686.367 127.459 686.646C127.611 686.926 127.888 687.065 128.29 687.065C128.702 687.065 128.979 686.93 129.121 686.661C129.263 686.386 129.334 686.09 129.334 685.773V685.006C129.334 684.688 129.266 684.39 129.128 684.111C128.996 683.827 128.717 683.685 128.29 683.685C127.893 683.685 127.618 683.827 127.467 684.111C127.315 684.39 127.239 684.688 127.239 685.006ZM117.431 677.449V676.682C117.431 676.076 117.561 675.522 117.822 675.02C118.087 674.513 118.466 674.108 118.958 673.805C119.45 673.498 120.047 673.344 120.748 673.344C121.472 673.344 122.081 673.498 122.573 673.805C123.07 674.108 123.447 674.513 123.702 675.02C123.958 675.522 124.086 676.076 124.086 676.682V677.449C124.086 678.055 123.956 678.609 123.695 679.111C123.44 679.613 123.063 680.013 122.566 680.311C122.069 680.609 121.463 680.759 120.748 680.759C120.033 680.759 119.427 680.607 118.93 680.304C118.437 680.001 118.063 679.598 117.807 679.097C117.556 678.595 117.431 678.045 117.431 677.449ZM119.718 676.682V677.449C119.718 677.766 119.791 678.062 119.938 678.337C120.09 678.607 120.36 678.741 120.748 678.741C121.164 678.741 121.441 678.607 121.579 678.337C121.721 678.062 121.792 677.766 121.792 677.449V676.682C121.792 676.365 121.726 676.066 121.593 675.787C121.46 675.503 121.179 675.361 120.748 675.361C120.35 675.361 120.078 675.505 119.931 675.794C119.789 676.083 119.718 676.379 119.718 676.682ZM118.503 688.5L128.503 673.955H130.442L120.442 688.5H118.503Z" fill="white"/>
</g>
<g filter="url(#filter11_d_652_922)">
<path d="M236.182 191.68L244.488 194.047L252.556 197.128L260.325 200.901L267.736 205.337L274.731 210.402L281.259 216.057L287.269 222.26L292.715 228.963L297.556 236.115L301.756 243.662L305.282 251.546L308.107 259.707L310.211 268.084L311.576 276.612L312.193 285.227L312.056 293.862L311.168 302.453L309.534 310.934" stroke="#FFB800" stroke-width="8" stroke-linecap="round"/>
<path d="M118.464 282.2L119.431 273.618L121.142 265.152L123.585 256.868L126.74 248.829L130.584 241.095L135.088 233.725L140.216 226.776L145.931 220.3L152.188 214.347L158.941 208.963L166.137 204.187L173.722 200.056L181.638 196.603L189.824 193.852L198.22 191.825L206.76 190.538L215.38 190L224.014 190.215" stroke="#0085FF" stroke-width="8" stroke-linecap="round"/>
<path d="M304.726 322.128L300.883 329.863L296.38 337.233L291.252 344.182L285.538 350.658L279.281 356.612L272.529 361.997L265.334 366.774L257.749 370.905L249.833 374.359L241.647 377.111L233.251 379.138L224.711 380.426L216.092 380.965L207.458 380.751L198.875 379.784L190.41 378.074L182.125 375.632L174.085 372.477" stroke="#6BD600" stroke-width="8" stroke-linecap="round"/>
<path d="M162.645 366.219L155.592 361.234L149.001 355.653L142.921 349.518L137.4 342.878L132.477 335.781L128.192 328.282L124.577 320.438L121.66 312.31L119.462 303.957L118 295.445" stroke="#DB2777" stroke-width="8" stroke-linecap="round"/>
</g>
<g filter="url(#filter12_d_652_922)">
<path d="M204.753 279.705C207.175 277.397 204.977 271.15 203.967 269.757L212.156 274.134L213.39 285.077C198.92 286.967 195.891 301.689 186.693 307.061C172.448 313.229 168.97 295.124 181.085 291.543C193.199 287.961 201.724 282.59 204.753 279.705Z" fill="#00B4D8" stroke="#00B4D8"/>
<path d="M211.291 248.459C210.477 258.023 214.751 266.469 211.291 273.795C214.31 274.711 219.96 275.993 218.414 273.795C216.867 271.597 217.769 268.266 218.414 266.876C218.821 263.213 226.35 252.529 226.35 246.831C226.92 235.597 211.291 239.708 211.291 248.459Z" fill="#00B4D8" stroke="#00B4D8"/>
<path d="M249.042 290.989C239.577 289.387 232.468 283.138 224.51 284.657C224.377 281.505 224.548 275.713 226.29 277.76C228.031 279.807 231.482 279.766 232.989 279.489C236.638 280.011 248.865 275.391 254.382 276.815C265.401 279.071 257.515 293.176 249.042 290.989Z" fill="#00B4D8" stroke="#00B4D8"/>
<path d="M235.001 259.349C230.85 263.989 225.335 266.777 223.096 267.591C219.331 268.269 214.983 268.507 207.454 266.675C196.187 262.707 184.125 240.346 175.883 240.016C159.603 239.365 166.217 258.332 175.883 259.349C187.103 260.53 195.827 265.76 203.255 273.289C210.858 278.906 213.124 290.384 211.089 295.166C210.108 299.541 202.354 310.327 203.255 319.078C205.086 336.884 223.096 328.642 219.433 318.162C216.503 309.777 215.829 299.138 217.629 295.166C221.655 286.279 226.615 290.265 227.717 292.405C228.819 294.545 235.677 307.961 240.391 313.896C242.766 317.051 251.713 323.162 256.923 317.138C262.133 311.115 255.465 307.219 251.964 304.464C249.895 302.836 246.453 300.055 239.289 296.749C230.082 292.499 227.717 286.279 226.615 281.871C226.064 276.911 226.454 268.405 243.446 264.539C257.041 261.445 260.507 256.67 260.541 254.669C263.186 243.476 250.739 242.289 246.194 244.392C237.036 250.599 240.19 253.549 235.001 259.349Z" fill="#DB2777" stroke="#DB2777"/>
</g>
</g>
<defs>
<filter id="filter0_d_652_922" x="38" y="719" width="350" height="135" filterUnits="userSpaceOnUse" color-interpolation-filters="sRGB">
<feFlood flood-opacity="0" result="BackgroundImageFix"/>
<feColorMatrix in="SourceAlpha" type="matrix" values="0 0 0 0 0 0 0 0 0 0 0 0 0 0 0 0 0 0 127 0" result="hardAlpha"/>
<feOffset/>
<feGaussianBlur stdDeviation="17.5"/>
<feComposite in2="hardAlpha" operator="out"/>
<feColorMatrix type="matrix" values="0 0 0 0 0 0 0 0 0 0 0 0 0 0 0 0 0 0 0.35 0"/>
<feBlend mode="normal" in2="BackgroundImageFix" result="effect1_dropShadow_652_922"/>
<feBlend mode="normal" in="SourceGraphic" in2="effect1_dropShadow_652_922" result="shape"/>
</filter>
<filter id="filter2_d_652_922" x="25" y="855" width="380" height="79.959" filterUnits="userSpaceOnUse" color-interpolation-filters="sRGB">
<feFlood flood-opacity="0" result="BackgroundImageFix"/>
<feColorMatrix in="SourceAlpha" type="matrix" values="0 0 0 0 0 0 0 0 0 0 0 0 0 0 0 0 0 0 127 0" result="hardAlpha"/>
<feOffset dy="5"/>
<feGaussianBlur stdDeviation="7.5"/>
<feComposite in2="hardAlpha" operator="out"/>
<feColorMatrix type="matrix" values="0 0 0 0 0 0 0 0 0 0 0 0 0 0 0 0 0 0 0.25 0"/>
<feBlend mode="normal" in2="BackgroundImageFix" result="effect1_dropShadow_652_922"/>
<feBlend mode="normal" in="SourceGraphic" in2="effect1_dropShadow_652_922" result="shape"/>
</filter>
<filter id="filter3_d_652_922" x="108.207" y="424" width="272.793" height="95" filterUnits="userSpaceOnUse" color-interpolation-filters="sRGB">
<feFlood flood-opacity="0" result="BackgroundImageFix"/>
<feColorMatrix in="SourceAlpha" type="matrix" values="0 0 0 0 0 0 0 0 0 0 0 0 0 0 0 0 0 0 127 0" result="hardAlpha"/>
<feOffset/>
<feGaussianBlur stdDeviation="12.5"/>
<feComposite in2="hardAlpha" operator="out"/>
<feColorMatrix type="matrix" values="0 0 0 0 0 0 0 0 0 0 0 0 0 0 0 0 0 0 0.35 0"/>
<feBlend mode="normal" in2="BackgroundImageFix" result="effect1_dropShadow_652_922"/>
<feBlend mode="normal" in="SourceGraphic" in2="effect1_dropShadow_652_922" result="shape"/>
</filter>
<filter id="filter4_d_652_922" x="50" y="424" width="125.268" height="95" filterUnits="userSpaceOnUse" color-interpolation-filters="sRGB">
<feFlood flood-opacity="0" result="BackgroundImageFix"/>
<feColorMatrix in="SourceAlpha" type="matrix" values="0 0 0 0 0 0 0 0 0 0 0 0 0 0 0 0 0 0 127 0" result="hardAlpha"/>
<feOffset/>
<feGaussianBlur stdDeviation="12.5"/>
<feComposite in2="hardAlpha" operator="out"/>
<feColorMatrix type="matrix" values="0 0 0 0 0 0 0 0 0 0 0 0 0 0 0 0 0 0 0.35 0"/>
<feBlend mode="normal" in2="BackgroundImageFix" result="effect1_dropShadow_652_922"/>
<feBlend mode="normal" in="SourceGraphic" in2="effect1_dropShadow_652_922" result="shape"/>
</filter>
<filter id="filter5_d_652_922" x="108.207" y="494" width="272.793" height="95" filterUnits="userSpaceOnUse" color-interpolation-filters="sRGB">
<feFlood flood-opacity="0" result="BackgroundImageFix"/>
<feColorMatrix in="SourceAlpha" type="matrix" values="0 0 0 0 0 0 0 0 0 0 0 0 0 0 0 0 0 0 127 0" result="hardAlpha"/>
<feOffset/>
<feGaussianBlur stdDeviation="12.5"/>
<feComposite in2="hardAlpha" operator="out"/>
<feColorMatrix type="matrix" values="0 0 0 0 0 0 0 0 0 0 0 0 0 0 0 0 0 0 0.35 0"/>
<feBlend mode="normal" in2="BackgroundImageFix" result="effect1_dropShadow_652_922"/>
<feBlend mode="normal" in="SourceGraphic" in2="effect1_dropShadow_652_922" result="shape"/>
</filter>
<filter id="filter6_d_652_922" x="50" y="494" width="125.268" height="95" filterUnits="userSpaceOnUse" color-interpolation-filters="sRGB">
<feFlood flood-opacity="0" result="BackgroundImageFix"/>
<feColorMatrix in="SourceAlpha" type="matrix" values="0 0 0 0 0 0 0 0 0 0 0 0 0 0 0 0 0 0 127 0" result="hardAlpha"/>
<feOffset/>
<feGaussianBlur stdDeviation="12.5"/>
<feComposite in2="hardAlpha" operator="out"/>
<feColorMatrix type="matrix" values="0 0 0 0 0 0 0 0 0 0 0 0 0 0 0 0 0 0 0.35 0"/>
<feBlend mode="normal" in2="BackgroundImageFix" result="effect1_dropShadow_652_922"/>
<feBlend mode="normal" in="SourceGraphic" in2="effect1_dropShadow_652_922" result="shape"/>
</filter>
<filter id="filter7_d_652_922" x="108.207" y="564" width="272.793" height="95" filterUnits="userSpaceOnUse" color-interpolation-filters="sRGB">
<feFlood flood-opacity="0" result="BackgroundImageFix"/>
<feColorMatrix in="SourceAlpha" type="matrix" values="0 0 0 0 0 0 0 0 0 0 0 0 0 0 0 0 0 0 127 0" result="hardAlpha"/>
<feOffset/>
<feGaussianBlur stdDeviation="12.5"/>
<feComposite in2="hardAlpha" operator="out"/>
<feColorMatrix type="matrix" values="0 0 0 0 0 0 0 0 0 0 0 0 0 0 0 0 0 0 0.35 0"/>
<feBlend mode="normal" in2="BackgroundImageFix" result="effect1_dropShadow_652_922"/>
<feBlend mode="normal" in="SourceGraphic" in2="effect1_dropShadow_652_922" result="shape"/>
</filter>
<filter id="filter8_d_652_922" x="50" y="564" width="125.268" height="95" filterUnits="userSpaceOnUse" color-interpolation-filters="sRGB">
<feFlood flood-opacity="0" result="BackgroundImageFix"/>
<feColorMatrix in="SourceAlpha" type="matrix" values="0 0 0 0 0 0 0 0 0 0 0 0 0 0 0 0 0 0 127 0" result="hardAlpha"/>
<feOffset/>
<feGaussianBlur stdDeviation="12.5"/>
<feComposite in2="hardAlpha" operator="out"/>
<feColorMatrix type="matrix" values="0 0 0 0 0 0 0 0 0 0 0 0 0 0 0 0 0 0 0.35 0"/>
<feBlend mode="normal" in2="BackgroundImageFix" result="effect1_dropShadow_652_922"/>
<feBlend mode="normal" in="SourceGraphic" in2="effect1_dropShadow_652_922" result="shape"/>
</filter>
<filter id="filter9_d_652_922" x="108.207" y="634" width="272.793" height="95" filterUnits="userSpaceOnUse" color-interpolation-filters="sRGB">
<feFlood flood-opacity="0" result="BackgroundImageFix"/>
<feColorMatrix in="SourceAlpha" type="matrix" values="0 0 0 0 0 0 0 0 0 0 0 0 0 0 0 0 0 0 127 0" result="hardAlpha"/>
<feOffset/>
<feGaussianBlur stdDeviation="12.5"/>
<feComposite in2="hardAlpha" operator="out"/>
<feColorMatrix type="matrix" values="0 0 0 0 0 0 0 0 0 0 0 0 0 0 0 0 0 0 0.35 0"/>
<feBlend mode="normal" in2="BackgroundImageFix" result="effect1_dropShadow_652_922"/>
<feBlend mode="normal" in="SourceGraphic" in2="effect1_dropShadow_652_922" result="shape"/>
</filter>
<filter id="filter10_d_652_922" x="50" y="634" width="125.268" height="95" filterUnits="userSpaceOnUse" color-interpolation-filters="sRGB">
<feFlood flood-opacity="0" result="BackgroundImageFix"/>
<feColorMatrix in="SourceAlpha" type="matrix" values="0 0 0 0 0 0 0 0 0 0 0 0 0 0 0 0 0 0 127 0" result="hardAlpha"/>
<feOffset/>
<feGaussianBlur stdDeviation="12.5"/>
<feComposite in2="hardAlpha" operator="out"/>
<feColorMatrix type="matrix" values="0 0 0 0 0 0 0 0 0 0 0 0 0 0 0 0 0 0 0.35 0"/>
<feBlend mode="normal" in2="BackgroundImageFix" result="effect1_dropShadow_652_922"/>
<feBlend mode="normal" in="SourceGraphic" in2="effect1_dropShadow_652_922" result="shape"/>
</filter>
<filter id="filter11_d_652_922" x="78.9995" y="150.997" width="272.195" height="268.971" filterUnits="userSpaceOnUse" color-interpolation-filters="sRGB">
<feFlood flood-opacity="0" result="BackgroundImageFix"/>
<feColorMatrix in="SourceAlpha" type="matrix" values="0 0 0 0 0 0 0 0 0 0 0 0 0 0 0 0 0 0 127 0" result="hardAlpha"/>
<feOffset/>
<feGaussianBlur stdDeviation="17.5"/>
<feComposite in2="hardAlpha" operator="out"/>
<feColorMatrix type="matrix" values="0 0 0 0 0 0 0 0 0 0 0 0 0 0 0 0 0 0 0.35 0"/>
<feBlend mode="normal" in2="BackgroundImageFix" result="effect1_dropShadow_652_922"/>
<feBlend mode="normal" in="SourceGraphic" in2="effect1_dropShadow_652_922" result="shape"/>
</filter>
<filter id="filter12_d_652_922" x="130.5" y="204.5" width="165.906" height="160.494" filterUnits="userSpaceOnUse" color-interpolation-filters="sRGB">
<feFlood flood-opacity="0" result="BackgroundImageFix"/>
<feColorMatrix in="SourceAlpha" type="matrix" values="0 0 0 0 0 0 0 0 0 0 0 0 0 0 0 0 0 0 127 0" result="hardAlpha"/>
<feOffset/>
<feGaussianBlur stdDeviation="17.5"/>
<feComposite in2="hardAlpha" operator="out"/>
<feColorMatrix type="matrix" values="0 0 0 0 0 0 0 0 0 0 0 0 0 0 0 0 0 0 0.35 0"/>
<feBlend mode="normal" in2="BackgroundImageFix" result="effect1_dropShadow_652_922"/>
<feBlend mode="normal" in="SourceGraphic" in2="effect1_dropShadow_652_922" result="shape"/>
</filter>
<clipPath id="clip0_652_922">
<rect width="430" height="932" fill="white"/>
</clipPath>
<clipPath id="clip1_652_922">
<rect width="38" height="24" fill="white" transform="translate(32 10)"/>
</clipPath>
<clipPath id="clip2_652_922">
<rect width="32" height="32" fill="white" transform="translate(198.208 873.979)"/>
</clipPath>
</defs>
</svg>
